<!-- Generator: Adobe Illustrator 21.1.0, SVG Export Plug-In  -->
<svg version="1.1" xmlns="http://www.w3.org/2000/svg" xmlns:xlink="http://www.w3.org/1999/xlink" xmlns:a="http://ns.adobe.com/AdobeSVGViewerExtensions/3.0/" x="0px" y="0px" width="307.7px" height="319.7px" viewBox="0 0 307.7 319.7" style="enable-background:new 0 0 307.7 319.7;" xml:space="preserve">
<style type="text/css">
	.st0{fill:#3BBDE8;}
	.st1{fill:#75CAED;}
	.st2{fill:#1F3C72;}
	.st3{fill:#FFFFFF;}
</style>
<defs>
</defs>
<g>
	<circle class="st0" cx="153.8" cy="165.8" r="153.8"/>
	<g>
		<polygon class="st0" points="79.7,41.6 34.8,0 51.3,68.9   "/>
		<polygon class="st0" points="228,41.6 272.9,0 256.4,68.9   "/>
	</g>
</g>
<path class="st1" d="M113,17.5C47.8,35.4,0,95,0,165.8C0,236,46.9,295.1,111.1,313.7c31.1-35,51-88.8,51-149.1  C162.1,105.4,143,52.5,113,17.5z"/>
<path class="st2" d="M53.1,158.7c-3.1-1.1-6.1,1.9-4.9,4.9c21.1,57.6,60.5,96.4,105.7,96.4c45.2,0,84.6-38.8,105.7-96.5  c1.1-3.1-1.8-6.1-4.9-4.9c-15.6,5.6-53.7,17.3-101.5,17.3C105.6,175.9,68.5,164.4,53.1,158.7z"/>
<g>
	<path class="st2" d="M114.8,97.3c10.6,0,19.6,4.7,23.6,13.8c0.5,1.1,2.1,0.7,2.1-0.5c0-1.4-0.1-2.7-0.3-4.1   c-1.8-11.4-11.3-20.4-22.9-21.4c-15.3-1.4-28.1,10.6-28.1,25.6c0,0,0,0,0,0.1c0,1.2,1.6,1.5,2.1,0.4   C95.2,102,104.3,97.3,114.8,97.3z"/>
	<path class="st2" d="M186.8,97.3c10.6,0,19.6,4.7,23.6,13.8c0.5,1.1,2.1,0.7,2.1-0.5c0-1.4-0.1-2.7-0.3-4.1   c-1.8-11.4-11.3-20.4-22.9-21.4c-15.3-1.4-28.1,10.6-28.1,25.6c0,0,0,0,0,0.1c0,1.2,1.6,1.5,2.1,0.4   C167.2,102,176.3,97.3,186.8,97.3z"/>
</g>
<path class="st3" d="M153.8,260c19,0,37.1-6.9,53.1-19.2c-4.9-7.7-16.3-13.1-29.6-13.1c-9.5,0-18,2.7-23.8,7.1  c-5.9-4.3-14.4-7.1-23.8-7.1c-13.1,0-24.4,5.3-29.4,12.8C116.4,253,134.6,260,153.8,260z"/>
</svg>